<?xml version="1.0" encoding="iso-8859-1"?>
<!-- Generator: Adobe Illustrator 18.0.0, SVG Export Plug-In . SVG Version: 6.00 Build 0)  -->
<!DOCTYPE svg PUBLIC "-//W3C//DTD SVG 1.1//EN" "http://www.w3.org/Graphics/SVG/1.1/DTD/svg11.dtd">
<svg version="1.1" id="Capa_1" xmlns="http://www.w3.org/2000/svg" xmlns:xlink="http://www.w3.org/1999/xlink" x="0px" y="0px"
	 viewBox="0 0 255.228 255.228" style="enable-background:new 0 0 255.228 255.228;" xml:space="preserve">
<path d="M232.593,55.115C213.228,27.07,184.101,8.246,150.578,2.11c-7.636-1.398-15.413-2.107-23.114-2.107
	c-61.542,0-114.266,44.006-125.365,104.636C-10.57,173.842,35.425,240.45,104.628,253.118c7.633,1.397,15.41,2.106,23.113,2.107
	c0.004,0,0.007,0,0.01,0c61.537,0,114.256-44.004,125.355-104.636C259.244,117.065,251.959,83.158,232.593,55.115z M14.886,106.98
	c4.064-22.2,14.342-41.917,28.835-57.487c2.977,3.194,5.748,6.534,8.314,9.999l-5.289,5.133c-2.576,2.5-2.637,6.615-0.137,9.191
	c1.274,1.313,2.968,1.973,4.665,1.973c1.631,0,3.264-0.61,4.526-1.836l3.491-3.388c2.294,3.99,4.342,8.103,6.131,12.319
	l-7.449,3.209c-3.297,1.42-4.818,5.245-3.397,8.542c1.059,2.458,3.455,3.929,5.972,3.929c0.858,0,1.731-0.171,2.569-0.532
	l6.698-2.886c1.301,4.404,2.335,8.888,3.097,13.428l-6.216,0.611c-3.573,0.351-6.185,3.531-5.833,7.104
	c0.33,3.357,3.157,5.865,6.461,5.865c0.212,0,0.427-0.01,0.643-0.032l6.363-0.625c0.227,4.322,0.217,8.673-0.051,13.037l-6.312-0.62
	c-3.566-0.351-6.753,2.26-7.104,5.833c-0.351,3.573,2.261,6.753,5.833,7.104l6.052,0.594c-0.047,0.267-0.085,0.535-0.134,0.802
	c-0.782,4.264-1.802,8.446-3.033,12.542l-6.464-2.785c-3.298-1.421-7.122,0.1-8.542,3.397c-1.421,3.297,0.1,7.121,3.397,8.542
	l7.153,3.082c-1.798,4.181-3.838,8.244-6.12,12.17l-3.206-3.112c-2.575-2.5-6.69-2.439-9.191,0.137
	c-2.5,2.576-2.439,6.691,0.137,9.191l4.955,4.809c-2.459,3.279-5.109,6.429-7.931,9.45C19.981,180.056,8.122,143.93,14.886,106.98z
	 M127.742,242.225c-6.921,0-13.91-0.638-20.773-1.894c-20.627-3.776-38.954-12.892-53.825-25.654
	c2.809-2.998,5.469-6.108,7.956-9.335l4.59,4.455c1.263,1.226,2.895,1.836,4.526,1.836c1.696,0,3.39-0.66,4.665-1.973
	c2.5-2.576,2.439-6.691-0.137-9.191l-6.161-5.98c3.219-5.224,6.056-10.671,8.484-16.32l5.151,2.219
	c0.838,0.361,1.711,0.532,2.569,0.532c2.517,0,4.913-1.471,5.972-3.929c1.421-3.297-0.1-7.121-3.397-8.542l-5.77-2.486
	c1.569-5.009,2.85-10.137,3.81-15.374c0.114-0.623,0.208-1.247,0.312-1.871l7.254,0.713c0.216,0.021,0.43,0.032,0.643,0.032
	c3.304,0,6.131-2.508,6.461-5.865c0.351-3.573-2.261-6.753-5.833-7.104l-7.02-0.689c0.34-5.216,0.357-10.417,0.062-15.58
	l6.958-0.683c3.573-0.351,6.185-3.531,5.833-7.104c-0.351-3.573-3.528-6.191-7.104-5.833l-7.078,0.695
	c-0.944-5.874-2.311-11.662-4.061-17.33l5.533-2.384c3.297-1.42,4.818-5.245,3.397-8.542c-1.42-3.297-5.245-4.817-8.542-3.397
	l-4.852,2.091c-2.413-5.676-5.251-11.182-8.483-16.481l5.862-5.69c2.576-2.5,2.637-6.615,0.137-9.191
	c-2.5-2.576-6.614-2.637-9.191-0.137l-4.242,4.117c-2.596-3.407-5.385-6.694-8.343-9.859c20.144-17.244,46.224-27.494,74.36-27.494
	c6.917,0,13.907,0.637,20.773,1.894c20.016,3.664,38.283,12.37,53.393,25.192c-3.103,3.29-6.022,6.712-8.73,10.267l-4.242-4.117
	c-2.575-2.501-6.69-2.44-9.191,0.137c-2.5,2.576-2.439,6.691,0.137,9.191l5.862,5.69c-3.233,5.3-6.071,10.805-8.483,16.481
	l-4.852-2.091c-3.298-1.422-7.122,0.1-8.542,3.397c-1.421,3.297,0.1,7.121,3.397,8.542l5.533,2.384
	c-1.75,5.668-3.117,11.456-4.061,17.33l-7.079-0.695c-3.563-0.352-6.753,2.26-7.104,5.833c-0.351,3.573,2.261,6.753,5.833,7.104
	l6.958,0.683c-0.295,5.163-0.278,10.364,0.062,15.58l-7.019,0.689c-3.573,0.351-6.185,3.531-5.833,7.104
	c0.33,3.357,3.157,5.865,6.461,5.865c0.212,0,0.427-0.01,0.643-0.032l7.254-0.712c0.105,0.624,0.198,1.248,0.313,1.872
	c0.96,5.237,2.241,10.365,3.81,15.373l-5.77,2.486c-3.297,1.42-4.818,5.245-3.397,8.542c1.059,2.458,3.455,3.929,5.972,3.929
	c0.858,0,1.731-0.171,2.569-0.532l5.151-2.219c2.428,5.648,5.266,11.095,8.484,16.319l-6.162,5.98
	c-2.576,2.5-2.637,6.615-0.137,9.191c1.274,1.313,2.968,1.973,4.665,1.973c1.631,0,3.264-0.61,4.526-1.836l4.59-4.455
	c2.614,3.391,5.414,6.656,8.383,9.794C181.552,232.137,155.659,242.227,127.742,242.225z M240.32,148.248
	c-4.104,22.417-14.545,42.299-29.261,57.94c-3.005-3.177-5.814-6.502-8.413-9.968l4.955-4.809c2.576-2.5,2.637-6.615,0.137-9.191
	c-2.499-2.576-6.614-2.637-9.191-0.137l-3.206,3.112c-2.282-3.926-4.323-7.989-6.12-12.17l7.153-3.082
	c3.297-1.42,4.818-5.245,3.397-8.542c-1.42-3.296-5.245-4.816-8.542-3.397l-6.464,2.785c-1.231-4.095-2.251-8.277-3.033-12.54
	c-0.049-0.268-0.087-0.536-0.134-0.803l6.053-0.594c3.573-0.351,6.185-3.531,5.833-7.104c-0.351-3.573-3.532-6.188-7.104-5.833
	l-6.312,0.62c-0.268-4.363-0.278-8.714-0.05-13.037l6.363,0.625c0.216,0.021,0.43,0.032,0.643,0.032
	c3.304,0,6.131-2.508,6.461-5.865c0.351-3.573-2.261-6.753-5.833-7.104l-6.216-0.611c0.763-4.54,1.796-9.024,3.097-13.428
	l6.698,2.886c0.838,0.361,1.711,0.532,2.569,0.532c2.517,0,4.913-1.471,5.972-3.929c1.421-3.297-0.1-7.121-3.397-8.542l-7.449-3.209
	c1.789-4.216,3.837-8.329,6.131-12.319l3.491,3.388c1.263,1.226,2.895,1.836,4.526,1.836c1.696,0,3.39-0.66,4.665-1.973
	c2.5-2.576,2.439-6.691-0.137-9.191l-5.289-5.133c2.686-3.627,5.599-7.115,8.735-10.443c3.911,4.171,7.539,8.661,10.848,13.454
	C239.288,87.688,245.831,118.14,240.32,148.248z"/>
<g>
</g>
<g>
</g>
<g>
</g>
<g>
</g>
<g>
</g>
<g>
</g>
<g>
</g>
<g>
</g>
<g>
</g>
<g>
</g>
<g>
</g>
<g>
</g>
<g>
</g>
<g>
</g>
<g>
</g>
</svg>
