<?xml version="1.0" encoding="iso-8859-1"?>
<!-- Generator: Adobe Illustrator 19.0.0, SVG Export Plug-In . SVG Version: 6.00 Build 0)  -->
<svg version="1.1" id="Layer_1" xmlns="http://www.w3.org/2000/svg" xmlns:xlink="http://www.w3.org/1999/xlink" x="0px" y="0px"
	 viewBox="0 0 460.001 460.001" style="enable-background:new 0 0 460.001 460.001;" xml:space="preserve">
<ellipse transform="matrix(-0.7071 -0.7071 0.7071 -0.7071 229.9969 555.2675)" style="fill:#59595A;" cx="229.998" cy="230" rx="178.172" ry="272.082"/>
<polygon style="fill:#FFFFFF;" points="298.961,231.021 313.104,216.878 285.185,188.959 303.991,170.152 289.849,156.01 
	271.042,174.816 245.199,148.974 231.057,163.116 256.899,188.959 230.001,215.857 204.158,190.015 190.016,204.157 215.858,230 
	188.96,256.898 163.117,231.056 148.975,245.198 174.817,271.041 156.011,289.848 170.153,303.99 188.96,285.184 216.879,313.103 
	231.022,298.96 203.103,271.041 230.001,244.143 257.92,272.062 272.063,257.919 244.144,230 271.042,203.102 "/>
<path style="fill:#FFFFFF;" d="M251.009,11.687l197.305,197.305c4.973-15.783,8.389-31.379,10.187-46.527L297.535,1.5
	C282.388,3.298,266.791,6.715,251.009,11.687z"/>
<path style="fill:#FFFFFF;" d="M1.501,297.534L162.467,458.5c15.147-1.798,30.744-5.214,46.527-10.187L11.688,251.008
	C6.716,266.79,3.299,282.387,1.501,297.534z"/>
<path style="opacity:0.3;fill:#5B5B5F;enable-background:new    ;" d="M355.989,355.988
	c106.256-106.256,135.986-248.8,66.405-318.381L37.608,422.393C107.189,491.974,249.733,462.243,355.989,355.988z"/>
<g>
</g>
<g>
</g>
<g>
</g>
<g>
</g>
<g>
</g>
<g>
</g>
<g>
</g>
<g>
</g>
<g>
</g>
<g>
</g>
<g>
</g>
<g>
</g>
<g>
</g>
<g>
</g>
<g>
</g>
</svg>
