<?xml version="1.0" encoding="iso-8859-1"?>
<!-- Generator: Adobe Illustrator 18.0.0, SVG Export Plug-In . SVG Version: 6.00 Build 0)  -->
<!DOCTYPE svg PUBLIC "-//W3C//DTD SVG 1.1//EN" "http://www.w3.org/Graphics/SVG/1.1/DTD/svg11.dtd">
<svg version="1.1" id="Capa_1" xmlns="http://www.w3.org/2000/svg" xmlns:xlink="http://www.w3.org/1999/xlink" x="0px" y="0px"
	 viewBox="0 0 297 297" style="enable-background:new 0 0 297 297;" xml:space="preserve">
<g>
	<path d="M294.892,197.47l-11.472-18.464c-1.872-3.015-5.85-3.941-8.859-2.069l-10.184,6.327l18.262,29.393l10.184-6.327
		c1.46-0.906,2.479-2.327,2.87-4S295.799,198.93,294.892,197.47z"/>
	<path d="M22.439,176.937c-1.054-0.655-2.226-0.967-3.385-0.967c-2.152,0-4.258,1.077-5.474,3.037L2.108,197.47
		c-0.907,1.46-1.192,3.186-0.801,4.859s1.41,3.094,2.869,4l10.184,6.327l18.262-29.393L22.439,176.937z"/>
	<path d="M249.082,1.386c-4.313-2.682-10.005-1.353-12.685,2.963L115.974,198.172c-4.415,7.107-11.335,12.069-19.482,13.972
		c-8.15,1.902-16.549,0.518-23.656-3.897L44.464,190.62l-18.262,29.394l44.547,27.677c6.967,4.328,15.204,5.686,23.188,3.819
		c7.987-1.865,14.769-6.73,19.097-13.697L252.045,14.071C254.726,9.758,253.396,4.067,249.082,1.386z"/>
	<path d="M129.449,150.067l10.844-17.454L60.603,4.348c-2.68-4.315-8.372-5.645-12.685-2.963c-4.314,2.681-5.644,8.372-2.963,12.685
		L129.449,150.067z"/>
	<path d="M224.163,208.248c-7.107,4.416-15.509,5.798-23.656,3.896c-8.147-1.903-15.067-6.865-19.482-13.972l-13.475-21.689
		l-10.844,17.454l27.26,43.876c4.328,6.967,11.11,11.832,19.097,13.697c7.988,1.867,16.222,0.51,23.188-3.818l44.547-27.678
		l-18.262-29.393L224.163,208.248z"/>
	<path d="M167.365,266.383h-37.731c-8.455,0-15.308,6.854-15.308,15.309c0,8.455,6.854,15.309,15.308,15.309h37.731
		c8.455,0,15.308-6.854,15.308-15.309C182.674,273.237,175.82,266.383,167.365,266.383z"/>
</g>
<g>
</g>
<g>
</g>
<g>
</g>
<g>
</g>
<g>
</g>
<g>
</g>
<g>
</g>
<g>
</g>
<g>
</g>
<g>
</g>
<g>
</g>
<g>
</g>
<g>
</g>
<g>
</g>
<g>
</g>
</svg>
