<?xml version="1.0" encoding="iso-8859-1"?>
<!-- Generator: Adobe Illustrator 19.0.0, SVG Export Plug-In . SVG Version: 6.00 Build 0)  -->
<svg version="1.1" id="Capa_1" xmlns="http://www.w3.org/2000/svg" xmlns:xlink="http://www.w3.org/1999/xlink" x="0px" y="0px"
	 viewBox="0 0 512 512" style="enable-background:new 0 0 512 512;" xml:space="preserve">
<path style="fill:#E5741A;" d="M300.311,402.081c0.336,16.986,9.224,32.365,23.784,41.165c14.394,8.712,32.167,9.563,47.524,1.9
	c9.487-4.736,17.308-12.572,22.045-22.03l40.829-81.673L300.311,402.081z"/>
<path style="fill:#FE8821;" d="M146.428,47.783c-19.161-4.191-38.62,1.497-52.392,15.269C82.062,74.726,76.074,91.193,77.57,107.959
	l13.173,148.04l165.56-179.331L146.428,47.783z"/>
<path style="fill:#E5741A;" d="M94.635,299.709l7.784,83.23c2.693,27.544,17.065,52.093,40.116,67.361
	c15.569,10.18,32.933,15.269,50.296,15.269c27.544,0,54.788-12.874,72.752-36.524l6.585-5.69L94.635,299.709z"/>
<path style="fill:#FE8821;" d="M120.681,256l-6.585,14.969l-18.263,41.913c-6.286,6.288-11.974,13.472-16.466,21.257l-21.655,34.43
	c-3.293,5.389-9.281,8.082-15.569,6.885c-6.286-1.197-11.077-5.988-11.974-12.276l-15.269-92.209l-14.67-87.421
	c-1.199-6.585,2.396-13.171,8.681-16.166c5.988-2.693,13.472-0.897,17.665,4.492l21.255,26.644
	c11.676,14.672,30.039,27.245,45.905,37.126L120.681,256z"/>
<path style="fill:#E5741A;" d="M14.899,270.969h99.197l-18.263,41.913c-6.286,6.288-11.974,13.472-16.466,21.257l-21.655,34.43
	c-3.293,5.389-9.281,8.082-15.569,6.885c-6.286-1.197-11.077-5.988-11.974-12.276L14.899,270.969z"/>
<path style="fill:#FEA832;" d="M511.777,263.185c0.297,2.693,0.297,5.389,0,7.784c-0.899,15.269-8.683,26.944-21.257,30.238
	c-27.843,7.485-38.122,18.861-50.697,34.428c-9.281,11.077-19.16,23.951-37.124,36.226c-29.938,21.255-63.469,36.524-97,45.207
	l-18.262-77.541c3.293-22.753,5.389-45.805,5.988-68.558c0.897-32.933-0.899-65.864-5.988-98.498l15.569-94.305
	c37.72,5.089,81.731,22.753,109.274,77.839c8.683,20.358,39.619,71.853,77.042,75.745
	C501.597,232.947,510.578,245.222,511.777,263.185z"/>
<path style="fill:#FE8821;" d="M511.777,270.969c-0.899,15.269-8.683,26.944-21.257,30.238
	c-27.843,7.485-38.122,18.861-50.697,34.428c-9.281,11.077-19.16,23.951-37.124,36.226c-29.938,21.255-63.469,36.524-97,45.207
	l-18.262-77.541c3.293-22.753,5.389-45.805,5.988-68.558L511.777,270.969L511.777,270.969z"/>
<circle style="fill:#3C3A41;" cx="375.158" cy="241.034" r="14.969"/>
<path style="fill:#E5E5E5;" d="M323.365,270.969c-0.6,24.25-2.995,48.8-6.587,73.05l-11.077,73.05
	c-16.765,4.19-31.735,6.286-33.531,6.286c-9.58,1.199-18.562,1.498-27.543,1.498l-17.065-85.325
	c3.293-22.753,5.389-45.805,5.988-68.558c0.897-32.933-0.899-65.864-5.988-98.498l15.569-95.503c2.993,0,5.089,0,13.173-0.297
	c15.866-0.6,29.938-0.6,46.704,1.497l13.771,89.815C322.166,202.111,324.262,236.539,323.365,270.969z"/>
<path style="fill:#D9D9D9;" d="M323.365,270.969c-0.6,24.25-2.995,48.8-6.587,73.05l-11.077,73.05
	c-16.765,4.19-31.735,6.286-33.531,6.286c-9.58,1.199-18.562,1.498-27.543,1.498l-17.065-85.325
	c3.293-22.753,5.389-45.805,5.988-68.558H323.365z"/>
<path style="fill:#FEA832;" d="M263.488,270.969c-0.6,24.25-2.995,48.8-6.587,73.05l-12.274,80.834
	c-19.76,0-40.118-2.995-58.38-9.58l-18.562-75.745c3.293-22.753,5.389-45.805,5.988-68.558c0.897-32.933-0.899-65.864-5.988-98.498
	l16.765-86.521c24.85-10.18,42.812-9.281,58.68-8.983l13.771,91.014C262.29,202.111,264.385,236.539,263.488,270.969z"/>
<path style="fill:#FE8821;" d="M173.673,270.969h89.815c-0.6,24.25-2.995,48.8-6.587,73.05l-12.274,80.834
	c-19.76,0-40.118-2.995-58.38-9.58l-18.562-75.745C170.978,316.774,173.073,293.722,173.673,270.969z"/>
<path style="fill:#E5E5E5;" d="M203.611,270.969c-0.6,24.25-2.995,48.8-6.587,73.05l-10.778,71.253
	c-52.093-18.562-82.031-60.477-91.611-115.563c-1.796-8.982-2.993-18.562-3.293-28.74c-0.6-4.191-0.6-8.683-0.6-13.173V256
	c0-69.756,30.538-143.704,93.707-170.05l12.573,82.031C202.413,202.111,204.509,236.539,203.611,270.969z"/>
<path style="fill:#D9D9D9;" d="M91.342,270.969h112.269c-0.6,24.25-2.995,48.8-6.587,73.05l-10.778,71.253
	c-52.093-18.562-82.031-60.477-91.611-115.563C92.839,290.728,91.642,281.147,91.342,270.969z"/>
<g>
</g>
<g>
</g>
<g>
</g>
<g>
</g>
<g>
</g>
<g>
</g>
<g>
</g>
<g>
</g>
<g>
</g>
<g>
</g>
<g>
</g>
<g>
</g>
<g>
</g>
<g>
</g>
<g>
</g>
</svg>
