<?xml version="1.0"?><svg width="640" height="480" xmlns="http://www.w3.org/2000/svg">
 <g>
  <title>Layer 1</title>
  <g id="layer1">
   <path id="text2160" d="m629.761841,61.296108l15.824036,13.315731c-1.392761,3.23838 -4.937317,6.838898 -10.591797,10.875282c-2.827332,1.208038 -4.261841,2.441139 -4.261841,3.649178c0,0.386475 0.717285,1.402008 2.109924,3.020851c-90.850403,52.441986 -167.902527,101.644852 -231.324371,147.610046c85.238342,64.548874 137.309418,101.500229 156.340424,110.731644c-3.544556,11.309692 -11.266541,19.985748 -23.250427,26.027374c-4.220032,2.030426 -9.494568,4.422882 -15.866455,7.249756c-11.224731,5.292389 -16.83667,8.095642 -16.83667,8.530731l0,0.556091l3.164642,6.645691c-2.86908,0.797272 -5.358948,2.223572 -7.426514,4.228912c-7.764465,5.267975 -16.245667,8.917175 -25.360382,10.923187c-2.82724,0 -6.329254,-1.208038 -10.633606,-3.6492c-2.78479,-1.160065 -6.287506,-2.610016 -10.506805,-4.228851c-4.261841,-1.618835 -6.287415,-2.441132 -6.287415,-2.441132c-0.759796,-0.386475 -1.43457,-0.604004 -2.151855,-0.604004c0,0 -1.097168,0.435089 -3.207184,1.23233c-14.769257,10.512451 -28.145813,17.158142 -40.129639,19.985748c-2.109955,0 -4.937225,-0.604034 -8.43927,-1.836365c-22.533112,-13.267792 -46.458984,-30.643494 -71.819366,-52.006897c-21.098541,-18.149384 -36.922485,-31.102173 -47.556091,-38.763428l-10.506805,8.458466l-72.916473,54.495972c-9.156601,6.863251 -35.192413,27.453003 -78.191162,61.697723l-13.756447,0l-20.128212,-12.662994c1.434532,-3.238434 2.194321,-4.857239 2.194321,-4.857239c1.392693,-2.41684 2.067505,-3.600525 2.067505,-3.600525c0,-2.416809 -2.10997,-3.64917 -6.32933,-3.64917c-4.219307,0 -10.549263,1.256714 -18.988575,3.64917c-0.759777,0 -2.827248,0.579651 -6.329319,1.812775c-7.764519,-2.441162 -19.031059,-10.512451 -33.84217,-24.19101c-4.219979,-3.600494 -6.28745,-6.06601 -6.28745,-7.274048c0,-0.797241 1.772591,-2.634338 5.27462,-5.461945c4.93725,-4.470795 7.384621,-8.072083 7.384621,-10.875336c0,-0.797241 -3.502041,-5.509918 -10.54928,-13.919708c-3.50203,-6.06601 -5.232131,-9.062531 -5.232131,-9.062531l51.733601,-38.135071l115.15609,-76.197815c2.827316,-2.464767 5.654541,-4.47081 8.439316,-6.066025c-45.741684,-45.578003 -83.044029,-90.745941 -111.948959,-135.551048c-6.329327,-10.898888 -10.169418,-18.56012 -11.603947,-22.982231c9.873821,-8.869278 22.871151,-17.786476 39.116833,-26.655758c7.047203,3.238415 12.27935,5.678814 15.823914,7.274052c2.78476,2.827606 5.612015,4.228859 8.439293,4.228859c7.047211,0 11.603943,-2.99649 13.713928,-9.0625c2.151825,-11.309669 10.929199,-17.158119 26.457535,-17.545307c4.937256,0 11.603943,2.610046 20.04393,7.830116c44.433273,41.5667 87.05278,78.469387 127.815353,110.756039c91.652069,-57.685684 167.269592,-102.248886 227.189484,-133.738256c11.983765,-6.04167 18.608643,-9.0625 20.085693,-9.0625c3.502075,0 14.093872,5.026859 31.732178,15.104181l6.287598,4.85722c0,0.79723 -1.054688,2.199238 -3.164795,4.253201c-1.392578,0.797256 -2.067444,1.595219 -2.067444,2.392487c0,1.208042 6.287415,4.446423 18.904297,9.715202l15.908142,-2.41684l6.284912,5.389709l0,0.000008z" fill="#ff0000"/>
  </g>
 </g>
</svg>